<?xml version="1.0" encoding="UTF-8" standalone="no"?>
<svg width="146px" height="50px" viewBox="0 0 146 50" version="1.1" xmlns="http://www.w3.org/2000/svg" xmlns:xlink="http://www.w3.org/1999/xlink" xmlns:sketch="http://www.bohemiancoding.com/sketch/ns">
    <!-- Generator: Sketch 3.4.4 (17249) - http://www.bohemiancoding.com/sketch -->
    <title>logo</title>
    <desc>Created with Sketch.</desc>
    <defs>
        <path id="path-1" d="M0,0.440410959 L145.217123,0.440410959 L145.217123,50 L0,50"></path>
    </defs>
    <g id="Page-1" stroke="none" stroke-width="1" fill="none" fill-rule="evenodd" sketch:type="MSPage">
        <g id="logo" sketch:type="MSLayerGroup">
            <path d="M9.28479452,33.2605479 C9.28479452,33.4954795 9.41013699,33.7132877 9.61424658,33.830411 C9.71561644,33.8893151 9.82931507,33.9187671 9.9430137,33.9187671 C10.0567123,33.9187671 10.169726,33.8893151 10.2724658,33.830411 L14.9135616,31.150274 C15.1183562,31.0324658 15.2430137,30.8146575 15.2430137,30.579726 C15.2430137,30.3454795 15.1183562,30.1283562 14.9135616,30.0105479 L10.2724658,27.329726 C10.169726,27.2708219 10.0567123,27.2420548 9.9430137,27.2420548 C9.82931507,27.2420548 9.71561644,27.2708219 9.61424658,27.329726 C9.41013699,27.4475342 9.28479452,27.6653425 9.28479452,27.9009589 L9.28479452,33.2605479 Z" id="Fill-1" fill="#F19100" sketch:type="MSShapeGroup"></path>
            <path d="M9.61417808,23.1096575 C9.71554795,23.1685616 9.82924658,23.1986986 9.94363014,23.1986986 C10.0566438,23.1986986 10.1703425,23.1685616 10.2723973,23.1096575 L14.9134932,20.4295205 C15.1176027,20.3110274 15.2429452,20.094589 15.2429452,19.8589726 C15.2429452,19.6240411 15.1176027,19.4076027 14.9134932,19.2891096 L10.2723973,16.6096575 C10.1703425,16.5507534 10.0566438,16.5213014 9.94363014,16.5213014 C9.82924658,16.5213014 9.71554795,16.5507534 9.61417808,16.6096575 C9.41006849,16.7274658 9.28472603,16.9439041 9.28472603,17.1788356 L9.28472603,22.5404795 C9.28472603,22.775411 9.41006849,22.9918493 9.61417808,23.1096575" id="Fill-3" fill="#F19100" sketch:type="MSShapeGroup"></path>
            <g id="Group-7">
                <mask id="mask-2" sketch:name="Clip 6" fill="white">
                    <use xlink:href="#path-1"></use>
                </mask>
                <g id="Clip-6"></g>
                <path d="M24.1991096,13.9292466 L0.986780822,0.528561644 C0.885410959,0.469657534 0.771712329,0.440205479 0.658013699,0.440205479 C0.544315068,0.440205479 0.430616438,0.469657534 0.329246575,0.528561644 C0.125821918,0.645684932 -0.000205479452,0.862808219 -0.000205479452,1.09842466 L-0.000205479452,49.3429452 C-0.000205479452,49.5778767 0.125821918,49.7943151 0.329246575,49.9121233 C0.429931507,49.9710274 0.544315068,49.9997945 0.658013699,49.9997945 C0.771712329,49.9997945 0.885410959,49.9710274 0.986780822,49.9121233 L5.62924658,47.2313014 C5.83335616,47.1141781 5.95869863,46.8970548 5.95869863,46.6614384 L5.95869863,15.9230822 C5.95869863,15.054589 6.12719178,14.7826712 6.79089041,14.3984247 L9.10869863,13.0600685 C9.93541096,12.5833562 9.95390411,12.5840411 10.7744521,13.0580137 L17.7217123,17.0696575 C18.5703425,17.5593836 18.5703425,17.7518493 18.5703425,18.6217123 L18.5703425,21.0970548 C18.5703425,21.9676027 18.5703425,22.1600685 17.7217123,22.6491096 L14.2559589,24.6504795 C14.0532192,24.7676027 13.9271918,24.984726 13.9271918,25.2196575 C13.9271918,25.454589 14.0532192,25.6717123 14.2559589,25.7895205 L17.7306164,27.7956849 C18.5696575,28.2813014 18.5703425,28.4758219 18.5703425,29.3422603 L18.5703425,31.8182877 C18.5703425,32.6881507 18.5703425,32.8806164 17.7217123,33.3703425 L9.61417808,38.0511644 C9.41075342,38.1682877 9.28472603,38.385411 9.28472603,38.6203425 L9.28472603,43.9813014 C9.28472603,44.2169178 9.41075342,44.4333562 9.61417808,44.5518493 C9.71554795,44.6107534 9.82924658,44.6388356 9.94363014,44.6388356 C10.0566438,44.6388356 10.1710274,44.6107534 10.2723973,44.5518493 L24.1991096,36.5107534 C24.4018493,36.3929452 24.5285616,36.1758219 24.5285616,35.9408904 L24.5285616,14.4991096 C24.5285616,14.2641781 24.4018493,14.0470548 24.1991096,13.9292466" id="Fill-5" fill="#F19100" sketch:type="MSShapeGroup" mask="url(#mask-2)"></path>
            </g>
            <path d="M46.1571233,25.2780822 C46.1571233,28.8534247 43.7071233,31.3047945 40.0742466,31.3047945 L36.6434247,31.3047945 L36.6434247,19.1376712 L40.0742466,19.1376712 C43.7071233,19.1376712 46.1571233,21.6452055 46.1571233,25.219863 L46.1571233,25.2780822 Z M40.0742466,15.1315068 L33.229726,15.1315068 C32.6646575,15.1315068 32.2050685,15.590411 32.2050685,16.1561644 L32.2050685,34.2849315 C32.2050685,34.8513699 32.6646575,35.310274 33.229726,35.310274 L40.0742466,35.310274 C46.4173973,35.310274 50.7975342,30.8993151 50.7975342,25.219863 L50.7975342,25.1609589 C50.7975342,19.4828767 46.4173973,15.1315068 40.0742466,15.1315068 L40.0742466,15.1315068 Z" id="Fill-8" fill="#F19100" sketch:type="MSShapeGroup"></path>
            <path d="M124.061438,15.1318493 L121.058699,15.1318493 C120.537466,15.1606164 120.170342,15.3715753 119.848425,15.8640411 L115.112123,23.4797945 L115.112123,23.4777397 L115.112123,23.4797945 L110.380616,15.8640411 C110.055274,15.3715753 109.690205,15.1606164 109.168288,15.1318493 L106.164178,15.1318493 C105.598425,15.1318493 105.14089,15.5907534 105.14089,16.1558219 L105.14089,34.285274 C105.14089,34.8510274 105.598425,35.3106164 106.164178,35.3106164 L108.466918,35.3106164 C109.034726,35.3106164 109.49226,34.8510274 109.49226,34.285274 L109.49226,22.2215753 L114.24911,29.4421233 L114.277877,29.4886986 C114.464863,29.7503425 114.768973,29.9215753 115.112123,29.9215753 C115.458014,29.9215753 115.761438,29.7503425 115.947055,29.4886986 L115.978562,29.4421233 L120.734726,22.2215753 L120.734726,34.285274 C120.734726,34.8510274 121.19363,35.3106164 121.759384,35.3106164 L124.061438,35.3106164 C124.628562,35.3106164 125.087466,34.8510274 125.087466,34.285274 L125.087466,16.1558219 C125.087466,15.5907534 124.628562,15.1318493 124.061438,15.1318493" id="Fill-10" fill="#9A9B9B" sketch:type="MSShapeGroup"></path>
            <path d="M89.2810959,26.9241781 L91.959863,20.4282877 L94.6420548,26.9241781 L89.2810959,26.9241781 Z M102.196849,34.3782877 L102.195479,34.374863 L94.2961644,15.9392466 C94.0386301,15.3399315 93.680411,15.1317123 93.0489041,15.1317123 L90.8735616,15.1317123 C90.24,15.1317123 89.8824658,15.3399315 89.6256164,15.9392466 L81.7256164,34.374863 L81.7228767,34.3782877 C81.6893151,34.4597945 81.6715068,34.5460959 81.6715068,34.6371918 C81.6715068,35.0077397 81.9721918,35.3104795 82.3461644,35.3104795 L84.9324658,35.3104795 C85.5646575,35.3104795 85.930411,35.1084247 86.1824658,34.5015753 L87.6947945,30.8166438 L96.2263014,30.8166438 L97.74,34.5015753 C97.9906849,35.1084247 98.3564384,35.3104795 98.9872603,35.3104795 L101.574247,35.3104795 C101.948904,35.3104795 102.252329,35.0077397 102.252329,34.6371918 C102.252329,34.5460959 102.231781,34.4597945 102.196849,34.3782877 L102.196849,34.3782877 Z" id="Fill-12" fill="#9A9B9B" sketch:type="MSShapeGroup"></path>
            <path d="M140.721164,22.2520548 C140.721164,23.9808219 139.423219,25.3082192 137.204726,25.3082192 L133.688288,25.3082192 L133.688288,19.1390411 L137.117055,19.1390411 C139.336918,19.1390411 140.721164,20.2061644 140.721164,22.1938356 L140.721164,22.2520548 Z M137.492397,15.1315068 L130.273219,15.1315068 C129.706781,15.1315068 129.248562,15.590411 129.248562,16.1561644 L129.248562,34.2849315 C129.248562,34.8513699 129.706781,35.310274 130.273219,35.310274 L132.66363,35.310274 C133.228699,35.310274 133.688288,34.8513699 133.688288,34.2849315 L133.688288,29.2547945 L137.059521,29.2547945 C141.585548,29.2547945 145.217055,26.8349315 145.217055,22.1650685 L145.217055,22.1075342 C145.217055,17.9856164 142.306096,15.1315068 137.492397,15.1315068 L137.492397,15.1315068 Z" id="Fill-14" fill="#9A9B9B" sketch:type="MSShapeGroup"></path>
            <path d="M77.6352055,30.0605479 C77.1858904,29.5406849 76.7475342,29.5030137 76.1852055,29.9550685 L76.1852055,29.9536986 C74.8687671,30.9715068 73.4852055,31.5742466 71.8016438,31.5742466 C68.3941096,31.5742466 65.9372603,28.7447945 65.9372603,25.279726 L65.9372603,25.220137 L65.9372603,25.1612329 C65.9372603,21.6968493 68.3941096,18.8660274 71.8016438,18.8660274 C73.4852055,18.8660274 74.8687671,19.470137 76.1852055,20.4886301 L76.1852055,20.4858904 C76.7475342,20.9406849 77.1858904,20.9009589 77.6352055,20.3831507 L79.1235616,18.6660274 C79.6283562,18.0824658 79.6283562,17.7009589 79.0345205,17.1872603 C77.2934247,15.7249315 75.1406849,14.7660274 71.830411,14.7660274 C65.620137,14.7660274 61.2879452,19.4735616 61.2879452,25.220137 C61.2879452,30.9687671 65.620137,35.6742466 71.830411,35.6742466 C75.1406849,35.6742466 77.2934247,34.7173973 79.0345205,33.2543836 C79.6283562,32.7406849 79.6283562,32.359863 79.1235616,31.7742466 L77.6352055,30.0605479 Z" id="Fill-16" fill="#9A9B9B" sketch:type="MSShapeGroup"></path>
            <path d="M58.2176712,33.134726 C58.2176712,34.334726 57.2443836,35.3107534 56.0423288,35.3107534 C54.8409589,35.3107534 53.8669863,34.334726 53.8669863,33.134726 C53.8669863,31.9306164 54.8409589,30.9573288 56.0423288,30.9573288 C57.2443836,30.9573288 58.2176712,31.9306164 58.2176712,33.134726" id="Fill-18" fill="#F19100" sketch:type="MSShapeGroup"></path>
        </g>
    </g>
</svg>